<mxfile host="app.diagrams.net" modified="2023-12-19T13:13:40.266Z" agent="Mozilla/5.0 (X11; Ubuntu; Linux x86_64; rv:120.0) Gecko/20100101 Firefox/120.0" version="22.1.11" etag="AHMozBhO_28c8-UTwco8" type="github">
  <diagram name="Сторінка-1" id="U_51nJ7SDJHKnssLUhPH">
    <mxGraphModel>
      <root>
        <mxCell id="0" />
        <mxCell id="1" parent="0" />
      </root>
    </mxGraphModel>
  </diagram>
</mxfile>
